RBDS022runT25_grf
version=1
nRows=24
nColumns=19
inDegrees=no
endheader
time	ground_force_r_vx	ground_force_r_vy	ground_force_r_vz	ground_force_r_px	ground_force_r_py	ground_force_r_pz	ground_force_r_mx	ground_force_r_my	ground_force_r_mz	ground_force_l_vx	ground_force_l_vy	ground_force_l_vz	ground_force_l_px	ground_force_l_py	ground_force_l_pz	ground_force_l_mx	ground_force_l_my	ground_force_l_mz
      7.49900000	     26.89167223	   1344.70867261	    -23.57007336	      2.17105796	      0.00000000	      1.05392603	     -0.00000000	     11.53784733	     -0.00000000	      0.00000000	      0.00000000	      0.00000000	      0.00000000	      0.00000000	      0.00000000	      0.00000000	      0.00000000	      0.00000000
      7.50000000	     30.32931914	   1335.10340388	    -23.11595218	      2.16884249	      0.00000000	      1.05390109	     -0.00000000	     11.45304380	     -0.00000000	      0.00000000	      0.00000000	      0.00000000	      0.00000000	      0.00000000	      0.00000000	      0.00000000	      0.00000000	      0.00000000
      7.50100000	     33.58694283	   1324.74960667	    -22.64432737	      2.16662253	      0.00000000	      1.05386928	     -0.00000000	     11.36454213	     -0.00000000	      0.00000000	      0.00000000	      0.00000000	      0.00000000	      0.00000000	      0.00000000	      0.00000000	      0.00000000	      0.00000000
      7.50200000	     36.84456652	   1314.39580945	    -22.17270257	      2.16440256	      0.00000000	      1.05383746	     -0.00000000	     11.27604046	     -0.00000000	      0.00000000	      0.00000000	      0.00000000	      0.00000000	      0.00000000	      0.00000000	      0.00000000	      0.00000000	      0.00000000
      7.50300000	     40.10219021	   1304.04201224	    -21.70107776	      2.16218260	      0.00000000	      1.05380564	     -0.00000000	     11.18753879	     -0.00000000	      0.00000000	      0.00000000	      0.00000000	      0.00000000	      0.00000000	      0.00000000	      0.00000000	      0.00000000	      0.00000000
      7.50400000	     43.23154360	   1293.21917263	    -21.22401395	      2.15995844	      0.00000000	      1.05377023	     -0.00000000	     11.09592922	     -0.00000000	      0.00000000	      0.00000000	      0.00000000	      0.00000000	      0.00000000	      0.00000000	      0.00000000	      0.00000000	      0.00000000
      7.50500000	     46.29676183	   1282.16181182	    -20.74423063	      2.15773219	      0.00000000	      1.05373304	     -0.00000000	     11.00276570	     -0.00000000	      0.00000000	      0.00000000	      0.00000000	      0.00000000	      0.00000000	      0.00000000	      0.00000000	      0.00000000	      0.00000000
      7.50600000	     49.36198007	   1271.10445101	    -20.26444732	      2.15550593	      0.00000000	      1.05369584	     -0.00000000	     10.90960219	     -0.00000000	      0.00000000	      0.00000000	      0.00000000	      0.00000000	      0.00000000	      0.00000000	      0.00000000	      0.00000000	      0.00000000
      7.50700000	     52.35947559	   1259.82888043	    -19.78510875	      2.15327713	      0.00000000	      1.05365746	     -0.00000000	     10.81458146	     -0.00000000	      0.00000000	      0.00000000	      0.00000000	      0.00000000	      0.00000000	      0.00000000	      0.00000000	      0.00000000	      0.00000000
      7.50800000	     55.22152567	   1248.11689031	    -19.30665968	      2.15104322	      0.00000000	      1.05361671	     -0.00000000	     10.71584629	     -0.00000000	      0.00000000	      0.00000000	      0.00000000	      0.00000000	      0.00000000	      0.00000000	      0.00000000	      0.00000000	      0.00000000
      7.50900000	     58.08357576	   1236.40490019	    -18.82821061	      2.14880931	      0.00000000	      1.05357595	     -0.00000000	     10.61711113	     -0.00000000	      0.00000000	      0.00000000	      0.00000000	      0.00000000	      0.00000000	      0.00000000	      0.00000000	      0.00000000	      0.00000000
      7.51000000	     60.94562584	   1224.69291007	    -18.34976154	      2.14657540	      0.00000000	      1.05353519	     -0.00000000	     10.51837597	     -0.00000000	      0.00000000	      0.00000000	      0.00000000	      0.00000000	      0.00000000	      0.00000000	      0.00000000	      0.00000000	      0.00000000
      7.51100000	     63.59510228	   1212.37949645	    -17.88186195	      2.14433295	      0.00000000	      1.05349294	     -0.00000000	     10.41329946	     -0.00000000	      0.00000000	      0.00000000	      0.00000000	      0.00000000	      0.00000000	      0.00000000	      0.00000000	      0.00000000	      0.00000000
      7.51200000	     66.24457871	   1200.06608284	    -17.41396236	      2.14209051	      0.00000000	      1.05345069	     -0.00000000	     10.30822295	     -0.00000000	      0.00000000	      0.00000000	      0.00000000	      0.00000000	      0.00000000	      0.00000000	      0.00000000	      0.00000000	      0.00000000
      7.51300000	     68.89405514	   1187.75266922	    -16.94606276	      2.13984806	      0.00000000	      1.05340844	     -0.00000000	     10.20314644	     -0.00000000	      0.00000000	      0.00000000	      0.00000000	      0.00000000	      0.00000000	      0.00000000	      0.00000000	      0.00000000	      0.00000000
      7.51400000	     71.39632785	   1175.07674072	    -16.49089241	      2.13759971	      0.00000000	      1.05336671	     -0.00000000	     10.09347093	     -0.00000000	      0.00000000	      0.00000000	      0.00000000	      0.00000000	      0.00000000	      0.00000000	      0.00000000	      0.00000000	      0.00000000
      7.51500000	     73.82499869	   1162.21955477	    -16.04208668	      2.13534840	      0.00000000	      1.05332523	     -0.00000000	      9.98149592	     -0.00000000	      0.00000000	      0.00000000	      0.00000000	      0.00000000	      0.00000000	      0.00000000	      0.00000000	      0.00000000	      0.00000000
      7.51600000	     76.25366953	   1149.36236882	    -15.59328095	      2.13309709	      0.00000000	      1.05328375	     -0.00000000	      9.86952092	     -0.00000000	      0.00000000	      0.00000000	      0.00000000	      0.00000000	      0.00000000	      0.00000000	      0.00000000	      0.00000000	      0.00000000
      7.51700000	     78.60635101	   1136.34463240	    -15.15334960	      2.13084292	      0.00000000	      1.05324334	     -0.00000000	      9.75514978	     -0.00000000	      0.00000000	      0.00000000	      0.00000000	      0.00000000	      0.00000000	      0.00000000	      0.00000000	      0.00000000	      0.00000000
      7.51800000	     80.80705374	   1123.00579503	    -14.73116704	      2.12858300	      0.00000000	      1.05320503	     -0.00000000	      9.63598639	     -0.00000000	      0.00000000	      0.00000000	      0.00000000	      0.00000000	      0.00000000	      0.00000000	      0.00000000	      0.00000000	      0.00000000
      7.51900000	     83.00775647	   1109.66695766	    -14.30898448	      2.12632309	      0.00000000	      1.05316673	     -0.00000000	      9.51682300	     -0.00000000	      0.00000000	      0.00000000	      0.00000000	      0.00000000	      0.00000000	      0.00000000	      0.00000000	      0.00000000	      0.00000000
      7.52000000	     85.20845920	   1096.32812029	    -13.88680192	      2.12406318	      0.00000000	      1.05312843	     -0.00000000	      9.39765961	     -0.00000000	      0.00000000	      0.00000000	      0.00000000	      0.00000000	      0.00000000	      0.00000000	      0.00000000	      0.00000000	      0.00000000
      7.52100000	     87.17507204	   1082.57408473	    -13.49747438	      2.12179555	      0.00000000	      1.05309577	     -0.00000000	      9.27131967	     -0.00000000	      0.00000000	      0.00000000	      0.00000000	      0.00000000	      0.00000000	      0.00000000	      0.00000000	      0.00000000	      0.00000000
      7.52200000	     89.14168489	   1068.82004917	    -13.10814683	      2.11952792	      0.00000000	      1.05306311	     -0.00000000	      9.14497973	     -0.00000000	      0.00000000	      0.00000000	      0.00000000	      0.00000000	      0.00000000	      0.00000000	      0.00000000	      0.00000000	      0.00000000
